<svg xmlns="http://www.w3.org/2000/svg" width="7.109" height="7.782" viewBox="0 0 7.109 7.782">
  <g id="arrow-up" transform="translate(11.255 -4.822) rotate(90)">
    <path id="Path_1" data-name="Path 1" d="M4.927,11.355a.449.449,0,0,1,.011-.591l.044-.042,6.884-5.776a.449.449,0,0,1,.622.646l-.044.042L5.56,11.41A.449.449,0,0,1,4.927,11.355Z" transform="translate(0 -0.26)" fill="#fff"/>
    <path id="Path_2" data-name="Path 2" d="M8.092,5.042a.449.449,0,0,1,.01-.9h.067l5.1.435a.449.449,0,0,1,.41.421V5.07l-.456,5.095a.449.449,0,0,1-.9-.014v-.067l.416-4.645Z" transform="translate(-1.072)" fill="#fff"/>
  </g>
</svg>
