<svg xmlns="http://www.w3.org/2000/svg" width="26.666" height="26.665" viewBox="0 0 26.666 26.665">
  <g id="Discount" transform="translate(-2.666 -2.666)">
    <path id="Path_1" data-name="Path 1" d="M16,29.331a4.006,4.006,0,0,1-2.832-1.167l-.973-.973a2.006,2.006,0,0,0-1.419-.585H9.405a4.02,4.02,0,0,1-4.015-4.015V21.22A2.012,2.012,0,0,0,4.8,19.8l-.957-.956a4.02,4.02,0,0,1-.015-5.676l.973-.975a2.006,2.006,0,0,0,.585-1.419V9.407A4.02,4.02,0,0,1,9.405,5.391h1.371A1.993,1.993,0,0,0,12.195,4.8l.959-.956a4.018,4.018,0,0,1,5.676-.015l.973.973a2,2,0,0,0,1.417.585h1.371a4.02,4.02,0,0,1,4.015,4.016v1.369a2.011,2.011,0,0,0,.587,1.42l.957.957a4.013,4.013,0,0,1,.027,5.663c-.013.013-.025.028-.039.04l-.947.947a2.006,2.006,0,0,0-.585,1.419v1.369a4.02,4.02,0,0,1-4.015,4.015H21.22a2.006,2.006,0,0,0-1.419.587l-.959.957A4,4,0,0,1,16,29.331" fill="#393939" opacity="0.4"/>
    <path id="Path_2" data-name="Path 2" d="M13.39,13.4a1.141,1.141,0,0,1-.821.339,1.2,1.2,0,0,1-.82-.34,1.174,1.174,0,0,1-.347-.827,1.22,1.22,0,0,1,.339-.82,1.056,1.056,0,0,1,.4-.259,1.142,1.142,0,0,1,1.255.257,1.223,1.223,0,0,1,.257.367A1.136,1.136,0,0,1,13.39,13.4Zm6.864-1.655a1.17,1.17,0,0,0-1.649,0L11.751,18.6a1.167,1.167,0,0,0,.825,1.992,1.157,1.157,0,0,0,.824-.341L20.254,13.4A1.169,1.169,0,0,0,20.254,11.746Zm-.38,6.606a1.18,1.18,0,0,0-1.285.259,1.564,1.564,0,0,0-.239.361,1.308,1.308,0,0,0,0,.908,1.217,1.217,0,0,0,.252.376,1.194,1.194,0,0,0,.833.337,1.212,1.212,0,0,0,.825-.343,1.2,1.2,0,0,0,0-1.649A1.063,1.063,0,0,0,19.874,18.352Z" fill="#eb00ff" fill-rule="evenodd"/>
  </g>
</svg>
